<?xml version="1.0" encoding="UTF-8"?>
<svg id="Calque_2" data-name="Calque 2" xmlns="http://www.w3.org/2000/svg" viewBox="0 0 52 52">
  <defs>
    <style>
      .cls-1 {
        fill: #312783;
        stroke-width: 0px;
      }
    </style>
  </defs>
  <g id="Calque_1-2" data-name="Calque 1">
    <path class="cls-1" d="m44.39,7.61C39.68,2.91,33.18,0,26,0S12.32,2.91,7.61,7.61C2.91,12.32,0,18.82,0,26c0,14.36,11.64,26,26,26,7.18,0,13.68-2.91,18.39-7.61s7.61-11.21,7.61-18.39-2.91-13.68-7.61-18.39Zm-7.14,32.03h-5.69l-5.29-19.86-5.27,19.86h-5.82l-6.35-26.57h5.49l4,18.25,4.86-18.25h6.38l4.66,18.56,4.08-18.56h5.4l-6.45,26.57Z"/>
  </g>
</svg>